<mxfile host="Electron" agent="Mozilla/5.0 (X11; Linux x86_64) AppleWebKit/537.36 (KHTML, like Gecko) draw.io/26.2.2 Chrome/134.0.6998.178 Electron/35.1.2 Safari/537.36" version="26.2.2">
  <diagram name="Page-1" id="9f46799a-70d6-7492-0946-bef42562c5a5">
    <mxGraphModel dx="574" dy="727" grid="1" gridSize="10" guides="1" tooltips="1" connect="1" arrows="1" fold="1" page="1" pageScale="1" pageWidth="1100" pageHeight="850" background="none" math="0" shadow="0">
      <root>
        <mxCell id="0" />
        <mxCell id="1" parent="0" />
        <mxCell id="UaIY51ikLt8kT3WHRuuG-1" value="stddef.h" style="swimlane;fontStyle=0;childLayout=stackLayout;horizontal=1;startSize=26;fillColor=none;horizontalStack=0;resizeParent=1;resizeParentMax=0;resizeLast=0;collapsible=1;marginBottom=0;whiteSpace=wrap;html=1;strokeColor=#FF9999;" vertex="1" parent="1">
          <mxGeometry x="80" y="78" width="140" height="52" as="geometry">
            <mxRectangle x="90" y="140" width="80" height="30" as="alternateBounds" />
          </mxGeometry>
        </mxCell>
        <mxCell id="UaIY51ikLt8kT3WHRuuG-5" value="errno.h" style="swimlane;fontStyle=0;childLayout=stackLayout;horizontal=1;startSize=26;fillColor=none;horizontalStack=0;resizeParent=1;resizeParentMax=0;resizeLast=0;collapsible=1;marginBottom=0;whiteSpace=wrap;html=1;strokeColor=#FF9999;" vertex="1" parent="1">
          <mxGeometry x="80" y="160" width="140" height="52" as="geometry">
            <mxRectangle x="90" y="140" width="80" height="30" as="alternateBounds" />
          </mxGeometry>
        </mxCell>
        <mxCell id="UaIY51ikLt8kT3WHRuuG-6" value="assert.h" style="swimlane;fontStyle=0;childLayout=stackLayout;horizontal=1;startSize=26;fillColor=none;horizontalStack=0;resizeParent=1;resizeParentMax=0;resizeLast=0;collapsible=1;marginBottom=0;whiteSpace=wrap;html=1;strokeColor=#FF9999;" vertex="1" parent="1">
          <mxGeometry x="80" y="240" width="140" height="52" as="geometry">
            <mxRectangle x="90" y="140" width="80" height="30" as="alternateBounds" />
          </mxGeometry>
        </mxCell>
        <mxCell id="UaIY51ikLt8kT3WHRuuG-7" value="setjmp.h" style="swimlane;fontStyle=0;childLayout=stackLayout;horizontal=1;startSize=26;fillColor=none;horizontalStack=0;resizeParent=1;resizeParentMax=0;resizeLast=0;collapsible=1;marginBottom=0;whiteSpace=wrap;html=1;strokeColor=#FF9999;" vertex="1" parent="1">
          <mxGeometry x="80" y="316" width="140" height="52" as="geometry">
            <mxRectangle x="90" y="140" width="80" height="30" as="alternateBounds" />
          </mxGeometry>
        </mxCell>
        <mxCell id="UaIY51ikLt8kT3WHRuuG-8" value="limits.h" style="swimlane;fontStyle=0;childLayout=stackLayout;horizontal=1;startSize=26;fillColor=none;horizontalStack=0;resizeParent=1;resizeParentMax=0;resizeLast=0;collapsible=1;marginBottom=0;whiteSpace=wrap;html=1;strokeColor=#FF9999;" vertex="1" parent="1">
          <mxGeometry x="80" y="399" width="140" height="52" as="geometry">
            <mxRectangle x="90" y="140" width="80" height="30" as="alternateBounds" />
          </mxGeometry>
        </mxCell>
        <mxCell id="UaIY51ikLt8kT3WHRuuG-9" value="float.h" style="swimlane;fontStyle=0;childLayout=stackLayout;horizontal=1;startSize=26;fillColor=none;horizontalStack=0;resizeParent=1;resizeParentMax=0;resizeLast=0;collapsible=1;marginBottom=0;whiteSpace=wrap;html=1;strokeColor=#FF9999;" vertex="1" parent="1">
          <mxGeometry x="80" y="477" width="140" height="52" as="geometry">
            <mxRectangle x="90" y="140" width="80" height="30" as="alternateBounds" />
          </mxGeometry>
        </mxCell>
        <mxCell id="UaIY51ikLt8kT3WHRuuG-10" value="math.h" style="swimlane;fontStyle=0;childLayout=stackLayout;horizontal=1;startSize=26;fillColor=none;horizontalStack=0;resizeParent=1;resizeParentMax=0;resizeLast=0;collapsible=1;marginBottom=0;whiteSpace=wrap;html=1;strokeColor=#FF9999;" vertex="1" parent="1">
          <mxGeometry x="80" y="560" width="140" height="52" as="geometry">
            <mxRectangle x="90" y="140" width="80" height="30" as="alternateBounds" />
          </mxGeometry>
        </mxCell>
        <mxCell id="UaIY51ikLt8kT3WHRuuG-11" value="ctype.h" style="swimlane;fontStyle=0;childLayout=stackLayout;horizontal=1;startSize=26;fillColor=none;horizontalStack=0;resizeParent=1;resizeParentMax=0;resizeLast=0;collapsible=1;marginBottom=0;whiteSpace=wrap;html=1;strokeColor=#FF9999;" vertex="1" parent="1">
          <mxGeometry x="80" y="640" width="140" height="52" as="geometry">
            <mxRectangle x="90" y="140" width="80" height="30" as="alternateBounds" />
          </mxGeometry>
        </mxCell>
        <mxCell id="UaIY51ikLt8kT3WHRuuG-12" value="string.h" style="swimlane;fontStyle=0;childLayout=stackLayout;horizontal=1;startSize=26;fillColor=none;horizontalStack=0;resizeParent=1;resizeParentMax=0;resizeLast=0;collapsible=1;marginBottom=0;whiteSpace=wrap;html=1;strokeColor=#FF9999;" vertex="1" parent="1">
          <mxGeometry x="240" y="78" width="140" height="52" as="geometry">
            <mxRectangle x="90" y="140" width="80" height="30" as="alternateBounds" />
          </mxGeometry>
        </mxCell>
        <mxCell id="UaIY51ikLt8kT3WHRuuG-13" value="time.h" style="swimlane;fontStyle=0;childLayout=stackLayout;horizontal=1;startSize=26;fillColor=none;horizontalStack=0;resizeParent=1;resizeParentMax=0;resizeLast=0;collapsible=1;marginBottom=0;whiteSpace=wrap;html=1;strokeColor=#FF9999;" vertex="1" parent="1">
          <mxGeometry x="240" y="160" width="140" height="52" as="geometry">
            <mxRectangle x="90" y="140" width="80" height="30" as="alternateBounds" />
          </mxGeometry>
        </mxCell>
        <mxCell id="UaIY51ikLt8kT3WHRuuG-14" value="locale.h" style="swimlane;fontStyle=0;childLayout=stackLayout;horizontal=1;startSize=26;fillColor=none;horizontalStack=0;resizeParent=1;resizeParentMax=0;resizeLast=0;collapsible=1;marginBottom=0;whiteSpace=wrap;html=1;strokeColor=#FF9999;" vertex="1" parent="1">
          <mxGeometry x="240" y="240" width="140" height="52" as="geometry">
            <mxRectangle x="90" y="140" width="80" height="30" as="alternateBounds" />
          </mxGeometry>
        </mxCell>
        <mxCell id="UaIY51ikLt8kT3WHRuuG-15" value="stdarg.h" style="swimlane;fontStyle=0;childLayout=stackLayout;horizontal=1;startSize=26;fillColor=none;horizontalStack=0;resizeParent=1;resizeParentMax=0;resizeLast=0;collapsible=1;marginBottom=0;whiteSpace=wrap;html=1;strokeColor=#FF9999;" vertex="1" parent="1">
          <mxGeometry x="240" y="316" width="140" height="52" as="geometry">
            <mxRectangle x="90" y="140" width="80" height="30" as="alternateBounds" />
          </mxGeometry>
        </mxCell>
        <mxCell id="UaIY51ikLt8kT3WHRuuG-16" value="signal.h" style="swimlane;fontStyle=0;childLayout=stackLayout;horizontal=1;startSize=26;fillColor=none;horizontalStack=0;resizeParent=1;resizeParentMax=0;resizeLast=0;collapsible=1;marginBottom=0;whiteSpace=wrap;html=1;strokeColor=#FF9999;" vertex="1" parent="1">
          <mxGeometry x="240" y="399" width="140" height="52" as="geometry">
            <mxRectangle x="90" y="140" width="80" height="30" as="alternateBounds" />
          </mxGeometry>
        </mxCell>
        <mxCell id="UaIY51ikLt8kT3WHRuuG-17" value="stdio.h" style="swimlane;fontStyle=0;childLayout=stackLayout;horizontal=1;startSize=26;fillColor=none;horizontalStack=0;resizeParent=1;resizeParentMax=0;resizeLast=0;collapsible=1;marginBottom=0;whiteSpace=wrap;html=1;strokeColor=#FF9999;" vertex="1" parent="1">
          <mxGeometry x="240" y="477" width="140" height="52" as="geometry">
            <mxRectangle x="90" y="140" width="80" height="30" as="alternateBounds" />
          </mxGeometry>
        </mxCell>
        <mxCell id="UaIY51ikLt8kT3WHRuuG-18" value="stdlib.h" style="swimlane;fontStyle=0;childLayout=stackLayout;horizontal=1;startSize=26;fillColor=none;horizontalStack=0;resizeParent=1;resizeParentMax=0;resizeLast=0;collapsible=1;marginBottom=0;whiteSpace=wrap;html=1;strokeColor=#FF9999;" vertex="1" parent="1">
          <mxGeometry x="240" y="560" width="140" height="52" as="geometry">
            <mxRectangle x="90" y="140" width="80" height="30" as="alternateBounds" />
          </mxGeometry>
        </mxCell>
        <mxCell id="UaIY51ikLt8kT3WHRuuG-20" value="iso646.h" style="swimlane;fontStyle=0;childLayout=stackLayout;horizontal=1;startSize=26;fillColor=none;horizontalStack=0;resizeParent=1;resizeParentMax=0;resizeLast=0;collapsible=1;marginBottom=0;whiteSpace=wrap;html=1;strokeColor=#00FFFF;" vertex="1" parent="1">
          <mxGeometry x="80" y="762" width="140" height="52" as="geometry">
            <mxRectangle x="90" y="140" width="80" height="30" as="alternateBounds" />
          </mxGeometry>
        </mxCell>
        <mxCell id="UaIY51ikLt8kT3WHRuuG-21" value="wchar.h" style="swimlane;fontStyle=0;childLayout=stackLayout;horizontal=1;startSize=26;fillColor=none;horizontalStack=0;resizeParent=1;resizeParentMax=0;resizeLast=0;collapsible=1;marginBottom=0;whiteSpace=wrap;html=1;strokeColor=#00FFFF;" vertex="1" parent="1">
          <mxGeometry x="240" y="684" width="140" height="52" as="geometry">
            <mxRectangle x="90" y="140" width="80" height="30" as="alternateBounds" />
          </mxGeometry>
        </mxCell>
        <mxCell id="UaIY51ikLt8kT3WHRuuG-22" value="wtype.h" style="swimlane;fontStyle=0;childLayout=stackLayout;horizontal=1;startSize=26;fillColor=none;horizontalStack=0;resizeParent=1;resizeParentMax=0;resizeLast=0;collapsible=1;marginBottom=0;whiteSpace=wrap;html=1;strokeColor=#00FFFF;" vertex="1" parent="1">
          <mxGeometry x="240" y="762" width="140" height="52" as="geometry">
            <mxRectangle x="90" y="140" width="80" height="30" as="alternateBounds" />
          </mxGeometry>
        </mxCell>
        <mxCell id="UaIY51ikLt8kT3WHRuuG-23" value="inttypes.h" style="swimlane;fontStyle=0;childLayout=stackLayout;horizontal=1;startSize=26;fillColor=none;horizontalStack=0;resizeParent=1;resizeParentMax=0;resizeLast=0;collapsible=1;marginBottom=0;whiteSpace=wrap;html=1;strokeColor=#3399FF;" vertex="1" parent="1">
          <mxGeometry x="440" y="78" width="140" height="52" as="geometry">
            <mxRectangle x="90" y="140" width="80" height="30" as="alternateBounds" />
          </mxGeometry>
        </mxCell>
        <mxCell id="UaIY51ikLt8kT3WHRuuG-24" value="tgmath.h" style="swimlane;fontStyle=0;childLayout=stackLayout;horizontal=1;startSize=26;fillColor=none;horizontalStack=0;resizeParent=1;resizeParentMax=0;resizeLast=0;collapsible=1;marginBottom=0;whiteSpace=wrap;html=1;strokeColor=#3399FF;" vertex="1" parent="1">
          <mxGeometry x="440" y="158" width="140" height="52" as="geometry">
            <mxRectangle x="90" y="140" width="80" height="30" as="alternateBounds" />
          </mxGeometry>
        </mxCell>
        <mxCell id="UaIY51ikLt8kT3WHRuuG-25" value="stdint.h" style="swimlane;fontStyle=0;childLayout=stackLayout;horizontal=1;startSize=26;fillColor=none;horizontalStack=0;resizeParent=1;resizeParentMax=0;resizeLast=0;collapsible=1;marginBottom=0;whiteSpace=wrap;html=1;strokeColor=#3399FF;" vertex="1" parent="1">
          <mxGeometry x="440" y="240" width="140" height="52" as="geometry">
            <mxRectangle x="90" y="140" width="80" height="30" as="alternateBounds" />
          </mxGeometry>
        </mxCell>
        <mxCell id="UaIY51ikLt8kT3WHRuuG-26" value="fenv.h" style="swimlane;fontStyle=0;childLayout=stackLayout;horizontal=1;startSize=26;fillColor=none;horizontalStack=0;resizeParent=1;resizeParentMax=0;resizeLast=0;collapsible=1;marginBottom=0;whiteSpace=wrap;html=1;strokeColor=#3399FF;" vertex="1" parent="1">
          <mxGeometry x="440" y="324" width="140" height="52" as="geometry">
            <mxRectangle x="90" y="140" width="80" height="30" as="alternateBounds" />
          </mxGeometry>
        </mxCell>
        <mxCell id="UaIY51ikLt8kT3WHRuuG-27" value="complex.h" style="swimlane;fontStyle=0;childLayout=stackLayout;horizontal=1;startSize=26;fillColor=none;horizontalStack=0;resizeParent=1;resizeParentMax=0;resizeLast=0;collapsible=1;marginBottom=0;whiteSpace=wrap;html=1;strokeColor=#3399FF;" vertex="1" parent="1">
          <mxGeometry x="440" y="399" width="140" height="52" as="geometry">
            <mxRectangle x="90" y="140" width="80" height="30" as="alternateBounds" />
          </mxGeometry>
        </mxCell>
        <mxCell id="UaIY51ikLt8kT3WHRuuG-28" value="stdbool.h" style="swimlane;fontStyle=0;childLayout=stackLayout;horizontal=1;startSize=26;fillColor=none;horizontalStack=0;resizeParent=1;resizeParentMax=0;resizeLast=0;collapsible=1;marginBottom=0;whiteSpace=wrap;html=1;strokeColor=#3399FF;" vertex="1" parent="1">
          <mxGeometry x="440" y="477" width="140" height="52" as="geometry">
            <mxRectangle x="90" y="140" width="80" height="30" as="alternateBounds" />
          </mxGeometry>
        </mxCell>
        <mxCell id="UaIY51ikLt8kT3WHRuuG-29" value="threads.h" style="swimlane;fontStyle=0;childLayout=stackLayout;horizontal=1;startSize=26;fillColor=none;horizontalStack=0;resizeParent=1;resizeParentMax=0;resizeLast=0;collapsible=1;marginBottom=0;whiteSpace=wrap;html=1;strokeColor=#7F00FF;" vertex="1" parent="1">
          <mxGeometry x="440" y="560" width="140" height="52" as="geometry">
            <mxRectangle x="90" y="140" width="80" height="30" as="alternateBounds" />
          </mxGeometry>
        </mxCell>
        <mxCell id="UaIY51ikLt8kT3WHRuuG-30" value="uchar.h" style="swimlane;fontStyle=0;childLayout=stackLayout;horizontal=1;startSize=26;fillColor=none;horizontalStack=0;resizeParent=1;resizeParentMax=0;resizeLast=0;collapsible=1;marginBottom=0;whiteSpace=wrap;html=1;strokeColor=#7F00FF;" vertex="1" parent="1">
          <mxGeometry x="440" y="640" width="140" height="52" as="geometry">
            <mxRectangle x="90" y="140" width="80" height="30" as="alternateBounds" />
          </mxGeometry>
        </mxCell>
        <mxCell id="UaIY51ikLt8kT3WHRuuG-31" value="stdatomic.h" style="swimlane;fontStyle=0;childLayout=stackLayout;horizontal=1;startSize=26;fillColor=none;horizontalStack=0;resizeParent=1;resizeParentMax=0;resizeLast=0;collapsible=1;marginBottom=0;whiteSpace=wrap;html=1;strokeColor=#7F00FF;" vertex="1" parent="1">
          <mxGeometry x="440" y="720" width="140" height="52" as="geometry">
            <mxRectangle x="90" y="140" width="80" height="30" as="alternateBounds" />
          </mxGeometry>
        </mxCell>
        <mxCell id="UaIY51ikLt8kT3WHRuuG-32" value="stdnoreturn.h" style="swimlane;fontStyle=0;childLayout=stackLayout;horizontal=1;startSize=26;fillColor=none;horizontalStack=0;resizeParent=1;resizeParentMax=0;resizeLast=0;collapsible=1;marginBottom=0;whiteSpace=wrap;html=1;strokeColor=#7F00FF;" vertex="1" parent="1">
          <mxGeometry x="440" y="798" width="140" height="52" as="geometry">
            <mxRectangle x="90" y="140" width="80" height="30" as="alternateBounds" />
          </mxGeometry>
        </mxCell>
        <mxCell id="UaIY51ikLt8kT3WHRuuG-33" value="stdalign.h" style="swimlane;fontStyle=0;childLayout=stackLayout;horizontal=1;startSize=26;fillColor=none;horizontalStack=0;resizeParent=1;resizeParentMax=0;resizeLast=0;collapsible=1;marginBottom=0;whiteSpace=wrap;html=1;strokeColor=#7F00FF;" vertex="1" parent="1">
          <mxGeometry x="440" y="880" width="140" height="52" as="geometry">
            <mxRectangle x="90" y="140" width="80" height="30" as="alternateBounds" />
          </mxGeometry>
        </mxCell>
        <mxCell id="UaIY51ikLt8kT3WHRuuG-34" value="stdbit.h" style="swimlane;fontStyle=0;childLayout=stackLayout;horizontal=1;startSize=26;fillColor=none;horizontalStack=0;resizeParent=1;resizeParentMax=0;resizeLast=0;collapsible=1;marginBottom=0;whiteSpace=wrap;html=1;strokeColor=#CC00CC;" vertex="1" parent="1">
          <mxGeometry x="640" y="78" width="140" height="52" as="geometry">
            <mxRectangle x="90" y="140" width="80" height="30" as="alternateBounds" />
          </mxGeometry>
        </mxCell>
        <mxCell id="UaIY51ikLt8kT3WHRuuG-35" value="stdckdint.h" style="swimlane;fontStyle=0;childLayout=stackLayout;horizontal=1;startSize=26;fillColor=none;horizontalStack=0;resizeParent=1;resizeParentMax=0;resizeLast=0;collapsible=1;marginBottom=0;whiteSpace=wrap;html=1;strokeColor=#CC00CC;" vertex="1" parent="1">
          <mxGeometry x="640" y="160" width="140" height="52" as="geometry">
            <mxRectangle x="90" y="140" width="80" height="30" as="alternateBounds" />
          </mxGeometry>
        </mxCell>
        <mxCell id="UaIY51ikLt8kT3WHRuuG-36" value="stdmchar.h" style="swimlane;fontStyle=0;childLayout=stackLayout;horizontal=1;startSize=26;fillColor=none;horizontalStack=0;resizeParent=1;resizeParentMax=0;resizeLast=0;collapsible=1;marginBottom=0;whiteSpace=wrap;html=1;strokeColor=#00FF00;" vertex="1" parent="1">
          <mxGeometry x="640" y="240" width="140" height="52" as="geometry">
            <mxRectangle x="90" y="140" width="80" height="30" as="alternateBounds" />
          </mxGeometry>
        </mxCell>
      </root>
    </mxGraphModel>
  </diagram>
</mxfile>
